# xmcd
#
# Track frame offsets: 
#        150
#        26522
#        46047
#        71355
#        104752
#        128462
#        150625
#        172350
#        199890
#
# Disc length: 2924 seconds
#
# Revision: 4
# Processed by: cddbd v1.5.2PL0 Copyright (c) Steve Scherf et al.
# Submitted via: ExactAudioCopy v1.3
#
DISCID=760b6a09
DTITLE=Đorđe Balašević - Naposletku...
DYEAR=1996
DGENRE=Pop
TTITLE0=Naposletku ...
TTITLE1=Dođoska
TTITLE2=Namćor
TTITLE3=Regruteska
TTITLE4=Poslednja nevesta
TTITLE5=Miholjsko leto
TTITLE6=Sin jedinac
TTITLE7=Drvena pesma
TTITLE8=Uspavanka za dečaka
EXTD=
EXTT0=
EXTT1=
EXTT2=
EXTT3=
EXTT4=
EXTT5=
EXTT6=
EXTT7=
EXTT8=
PLAYORDER=
